<svg id="Layer_1" data-name="Layer 1" xmlns="http://www.w3.org/2000/svg" viewBox="0 0 252.03 219.02"><title>RonSilva_logo</title><path d="M148.15,178.55C137.94,167.4,115.22,135,115.22,135,110.11,127.74,102,119,96.36,116.41c25.34,0,44.77-24.74,44.77-50.26,0-30.71-19.57-49.53-51.51-49.53H18.52l0,2.62H21.9A16.89,16.89,0,0,1,38.78,35.82V182.05A16.88,16.88,0,0,1,21.91,198.5H18.57l0,2.63H76.11l0-2.63H72.74a16.9,16.9,0,0,1-16.89-16.58V24.83c3.42.13,19.38-.53,32.82.21,19.62,1.07,32,16.34,32.69,40.18.16,5.78-.51,12.09-1.67,15.78-7.48,23.74-27.47,27-41.14,27.37-7.94.21-13.93.09-13.93.09v2.43c9.63,0,17.32,9.13,24.21,17.79,2,2.54,31.72,45.76,34.72,49.34,8.28,9.89,21.45,23.1,46,23.1h15.29C169.34,201,158.75,190.13,148.15,178.55Z"/><path d="M223.18,127.08l-51.8-47.94a33.19,33.19,0,0,1-10.61-24.31c0-16.06,13-30.31,32.42-30.31,16.42,0,29.72,10.28,29.66,27.14h2.53V19.32H214.94a115.41,115.41,0,0,0-22.6-2.7C162.29,16.62,146,39,146,61.16A44.19,44.19,0,0,0,160.3,93.83l50.49,46.88c6.58,6.12,10.34,14.27,10.34,24.57,0,21.06-17.06,34.78-36.31,35.85,30.31,0,51.6-12.76,51.6-41.91C236.42,148.57,233.72,136.81,223.18,127.08Z"/></svg>